# xmcd
#
# Track frame offsets:
#	150
#	14625
#	30075
#	69675
#	90225
#	98550
#	117525
#	133575
#	165750
#	184800
#
# Disc length: 2687 seconds
#
# Revision: 0
# Processed by: cddbd v1.5.2PL0 Copyright (c) Steve Scherf et al.
# Submitted via: audiograbber 1.83.01
#
DISCID=720a7d0a
DTITLE=SOULMATE - SOULMATE - SHILLONG
DYEAR=1900
DGENRE=BLUES
TTITLE0=Love You
TTITLE1=The Price
TTITLE2=If You Were My Guitar
TTITLE3=I Am
TTITLE4=My Baby
TTITLE5=Do You
TTITLE6=St. Valentine's Day Blues
TTITLE7=Shillong (sier lapalang)
TTITLE8=If You See My Baby
TTITLE9=Blues is My Soulmate
EXTD=
EXTT0=
EXTT1=
EXTT2=
EXTT3=
EXTT4=
EXTT5=
EXTT6=
EXTT7=
EXTT8=
EXTT9=
PLAYORDER=
